# xmcd CD database file
#
# Track frame offsets:
#	150
#	18882
#	37665
#	53020
#	70260
#	87352
#	101820
#	119217
#	132167
#	154792
#
# Disc length: 2273 seconds
#
# Revision: 2
# Processed by: cddbd v1.5.2PL0 Copyright (c) Steve Scherf et al.
# Submitted via: CDex 1.50Beta7
#
DISCID=7e08df0a
DTITLE=Freddie King - Burglar
DYEAR=1974
DGENRE=Blues
TTITLE0=Pack It Up
TTITLE1=My Credit Didn't Go Through
TTITLE2=I Got The Same Old Blues
TTITLE3=Only Getting Second Best
TTITLE4=Texas Flyer
TTITLE5=Pulp Wood
TTITLE6=She's A Burglar
TTITLE7=Sugar Sweet
TTITLE8=I Had A Dream
TTITLE9=Let The Good Times Roll
EXTD=YEAR: 1974
EXTT0=
EXTT1=
EXTT2=
EXTT3=
EXTT4=
EXTT5=
EXTT6=
EXTT7=
EXTT8=
EXTT9=
PLAYORDER=
